<svg width="170" height="115" viewBox="0 0 170 115" fill="none" xmlns="http://www.w3.org/2000/svg">
<g clip-path="url(#clip0_10344_12766)">
<path d="M22.6131 43H6.46105C2.89285 43 0.000244141 45.9848 0.000244141 49.6667V66.3333C0.000244141 70.0152 2.89285 73 6.46105 73H22.6131C26.1813 73 29.0739 70.0152 29.0739 66.3333V49.6667C29.0739 45.9848 26.1813 43 22.6131 43Z" fill="#4489F7"/>
<path fill-rule="evenodd" clip-rule="evenodd" d="M9.57377 66.1427C13.8592 65.5712 16.4575 64.2326 17.3872 63.5178C17.6181 63.3979 17.8443 63.2614 18.0642 63.108C20.7828 61.2112 21.525 57.4429 19.7219 54.6911C17.9188 51.9393 14.2531 51.2462 11.5345 53.1429C11.439 53.2096 11.3458 53.2786 11.2552 53.3497C11.1866 53.3868 11.1202 53.4296 11.056 53.4784C8.37142 55.5203 6.45385 58.6597 5.70318 60.2239C4.85843 56.3319 6.36715 52.101 9.80636 49.7015C14.2741 46.5845 20.3078 47.7383 23.2829 52.2787C26.258 56.8191 25.0481 63.0267 20.5804 66.1438C17.1359 68.5469 12.7606 68.4115 9.57377 66.1427Z" fill="white"/>
<path fill-rule="evenodd" clip-rule="evenodd" d="M11.8543 55.1063C11.9173 55.0568 11.9821 55.0088 12.0486 54.9624C13.9405 53.6424 16.4974 54.1339 17.7596 56.0601C19.0218 57.9864 18.5113 60.618 16.6194 61.9379C16.4663 62.0447 16.3089 62.1396 16.1482 62.2229C15.4961 62.7245 13.6634 63.6656 10.634 64.0509L13.1886 61.5805L6.14032 64.2762L11.4366 58.1628L7.90561 60.0954C8.34713 59.0927 9.72728 56.7089 11.7156 55.1958C11.7603 55.1619 11.8065 55.1321 11.8543 55.1063Z" fill="white"/>
<path d="M43.2795 69.3083C40.6608 69.3083 38.625 68.5906 37.1724 67.155C35.7402 65.7195 35.0242 63.6928 35.0242 61.075C35.0242 59.3017 35.3617 57.7395 36.0369 56.3883C36.7121 55.0161 37.6634 53.9606 38.891 53.2217C40.1185 52.4617 41.5403 52.0817 43.1567 52.0817C43.9138 52.0817 44.7012 52.1767 45.5198 52.3667C46.3584 52.5356 47.0029 52.7361 47.4531 52.9683L46.6245 56.7367C46.1541 56.5045 45.6324 56.325 45.0594 56.1983C44.507 56.0506 43.9853 55.9767 43.4943 55.9767C42.226 55.9767 41.2027 56.42 40.4254 57.3067C39.6684 58.1933 39.2899 59.365 39.2899 60.8217C39.2899 62.2995 39.6787 63.4395 40.4561 64.2417C41.254 65.0439 42.3794 65.445 43.8319 65.445C44.7933 65.445 45.8266 65.255 46.9314 64.875L47.5759 68.485C46.2462 69.0339 44.8139 69.3083 43.2795 69.3083ZM57.8135 69.3083C56.2176 69.3083 54.806 68.9495 53.5784 68.2317C52.371 67.5139 51.4302 66.5111 50.755 65.2233C50.0799 63.9145 49.7423 62.405 49.7423 60.695C49.7423 58.985 50.0694 57.4861 50.7243 56.1983C51.3995 54.8895 52.3403 53.8761 53.5477 53.1583C54.7753 52.4406 56.187 52.0817 57.7828 52.0817C59.3786 52.0817 60.7798 52.4406 61.9871 53.1583C63.2147 53.855 64.1556 54.8472 64.8105 56.135C65.4857 57.4228 65.8232 58.9111 65.8232 60.6C65.8232 62.31 65.4857 63.83 64.8105 65.16C64.1556 66.4689 63.2147 67.4928 61.9871 68.2317C60.7798 68.9495 59.3887 69.3083 57.8135 69.3083ZM57.7828 65.445C58.8876 65.445 59.767 65.0122 60.422 64.1467C61.0972 63.26 61.4347 62.0989 61.4347 60.6633C61.4347 59.2278 61.0972 58.0878 60.422 57.2433C59.767 56.3778 58.8876 55.945 57.7828 55.945C56.678 55.945 55.788 56.3778 55.1128 57.2433C54.4579 58.0878 54.1308 59.2278 54.1308 60.6633C54.1308 62.0989 54.4579 63.26 55.1128 64.1467C55.788 65.0122 56.678 65.445 57.7828 65.445ZM69.0306 52.525H73.2657V55.0583C74.5134 53.0739 76.2013 52.0817 78.3293 52.0817C79.5363 52.0817 80.5591 52.3772 81.3982 52.9683C82.2575 53.5383 82.8814 54.3617 83.2703 55.4383C83.9862 54.2772 84.7841 53.4328 85.664 52.905C86.5641 52.3561 87.5869 52.0817 88.7329 52.0817C90.4308 52.0817 91.7505 52.6095 92.6917 53.665C93.6532 54.6995 94.1341 56.1456 94.1341 58.0033V68.8333H89.807V58.7C89.807 57.8556 89.6023 57.2011 89.1932 56.7367C88.8043 56.2511 88.2725 56.0083 87.5974 56.0083C86.7583 56.0083 85.981 56.3672 85.265 57.085C84.5487 57.8028 84.0169 58.7211 83.6692 59.84V68.8333H79.3421V58.7C79.3421 57.8767 79.1374 57.2222 78.7283 56.7367C78.3189 56.2511 77.777 56.0083 77.1018 56.0083C76.3447 56.0083 75.6287 56.3039 74.9536 56.895C74.2986 57.465 73.7668 58.2778 73.3578 59.3333V68.8333H69.0306V52.525ZM97.9811 52.525H102.216V55.0583C103.464 53.0739 105.152 52.0817 107.28 52.0817C108.487 52.0817 109.51 52.3772 110.349 52.9683C111.208 53.5383 111.832 54.3617 112.221 55.4383C112.937 54.2772 113.735 53.4328 114.614 52.905C115.515 52.3561 116.538 52.0817 117.683 52.0817C119.381 52.0817 120.701 52.6095 121.642 53.665C122.604 54.6995 123.085 56.1456 123.085 58.0033V68.8333H118.757V58.7C118.757 57.8556 118.553 57.2011 118.144 56.7367C117.755 56.2511 117.223 56.0083 116.548 56.0083C115.709 56.0083 114.931 56.3672 114.216 57.085C113.5 57.8028 112.967 58.7211 112.62 59.84V68.8333H108.293V58.7C108.293 57.8767 108.088 57.2222 107.679 56.7367C107.27 56.2511 106.727 56.0083 106.052 56.0083C105.295 56.0083 104.579 56.3039 103.904 56.895C103.249 57.465 102.717 58.2778 102.308 59.3333V68.8333H97.9811V52.525ZM134.539 69.3083C131.982 69.3083 129.966 68.5483 128.493 67.0283C127.041 65.5083 126.314 63.3972 126.314 60.695C126.314 58.9428 126.632 57.4228 127.266 56.135C127.9 54.8261 128.79 53.8233 129.935 53.1267C131.102 52.43 132.462 52.0817 134.017 52.0817C136.309 52.0817 138.068 52.8417 139.296 54.3617C140.523 55.8817 141.137 58.0772 141.137 60.9483C141.137 61.4339 141.127 61.7928 141.106 62.025H130.672C130.877 63.1439 131.347 63.9989 132.084 64.59C132.82 65.16 133.813 65.445 135.06 65.445C135.818 65.445 136.605 65.35 137.424 65.16C138.242 64.9489 138.958 64.6745 139.572 64.3367L140.278 67.915C139.459 68.3583 138.549 68.6961 137.546 68.9283C136.564 69.1817 135.562 69.3083 134.539 69.3083ZM136.994 58.6683C136.933 57.7606 136.626 57.0428 136.073 56.515C135.521 55.9661 134.784 55.6917 133.864 55.6917C132.984 55.6917 132.258 55.9556 131.685 56.4833C131.132 57.0111 130.785 57.7395 130.641 58.6683H136.994ZM150.174 69.3083C148.701 69.3083 147.555 68.9283 146.737 68.1683C145.939 67.3872 145.54 66.2895 145.54 64.875V56.3567H143.085V52.525H145.54V49.0417C146.993 48.7883 148.425 48.5983 149.837 48.4717V52.525H153.826V56.3567H149.837V64.0517C149.837 64.495 149.96 64.8328 150.205 65.065C150.471 65.2972 150.839 65.4133 151.31 65.4133C151.882 65.4133 152.537 65.2761 153.274 65.0017L154.225 68.3583C152.916 68.9917 151.565 69.3083 150.174 69.3083ZM161.114 69.3083C159.478 69.3083 158.178 68.5906 157.217 67.155C156.255 65.7195 155.774 63.7667 155.774 61.2967C155.774 58.2989 156.511 56.0189 157.984 54.4567C159.457 52.8733 161.574 52.0817 164.336 52.0817C165.891 52.0817 167.712 52.335 169.799 52.8417V68.8333H165.687L165.779 66.2367H165.656C165.124 67.2289 164.47 67.9889 163.692 68.5167C162.935 69.0445 162.076 69.3083 161.114 69.3083ZM162.035 65.4133C162.669 65.4133 163.293 65.065 163.907 64.3683C164.521 63.6717 165.094 62.7428 165.625 61.5817V56.2617C164.971 56.0717 164.316 55.9767 163.661 55.9767C162.434 55.9767 161.503 56.4095 160.869 57.275C160.255 58.1406 159.948 59.4178 159.948 61.1067C159.948 62.4367 160.132 63.4922 160.5 64.2733C160.869 65.0333 161.38 65.4133 162.035 65.4133Z" fill="white"/>
</g>
<defs>
<clipPath id="clip0_10344_12766">
<rect width="170" height="30" fill="white" transform="translate(0 43)"/>
</clipPath>
</defs>
</svg>
